<?xml version='1.0' encoding='utf-8'?>
<!DOCTYPE svg PUBLIC '-//W3C//DTD SVG 1.1//EN' 'http://www.w3.org/Graphics/SVG/1.1/DTD/svg11.dtd'>
<svg version="1.1" xmlns="http://www.w3.org/2000/svg" viewBox="0 0 512 512" xmlns:xlink="http://www.w3.org/1999/xlink" enable-background="new 0 0 512 512">
  <g>
    <g>
      <path d="m147.2,254.1h221.2c11.4,0 20.7-9.1 20.7-20.4 0-11.3-9.3-20.4-20.7-20.4h-221.2c-11.4,0-20.7,9.1-20.7,20.4-0.1,11.3 9.2,20.4 20.7,20.4z"/>
      <g>
        <path d="m147.2,358.3h221.2c11.4,0 20.7-9.1 20.7-20.4 0-11.3-9.3-20.4-20.7-20.4h-221.2c-11.4,0-20.7,9.1-20.7,20.4-0.1,11.3 9.2,20.4 20.7,20.4z"/>
        <path d="m459.4,460.1h-374.4c-17.6,0-32.5-11.4-32.5-24.8v-305.3c6.2,2.1 12.9,3.3 19.9,3.3h387v326.8zm-387.1-408.2h347.2c-7.7,11.5-7.7,29.3 2.8,40.6h-350c-11,0-19.9-8.9-19.9-20.3 0-11.4 9-20.3 19.9-20.3zm406.9,35.7c-0.4,0-6.2,0-6.4,0-9.7-0.4-17.4-8.2-17.4-17.8 0-9.2 7-16.8 16.1-17.7 0,0 6-0.1 6-0.1 11.4,0 20.7-9.1 20.7-20.4 0-11.3-9.3-20.4-20.7-20.4h-405.2c-33.8-0.2-61.3,26.9-61.3,60.2v363.9c0,36.2 33.2,65.6 74,65.6h395c11.4,0 20.6-9.1 20.7-20.3l.3-370.2c0-12.5-9.3-22.8-21.8-22.8z"/>
      </g>
    </g>
  </g>
</svg>
