<?xml version='1.0' encoding='utf-8'?>
<!DOCTYPE svg PUBLIC '-//W3C//DTD SVG 1.1//EN' 'http://www.w3.org/Graphics/SVG/1.1/DTD/svg11.dtd'>
<svg version="1.1" xmlns="http://www.w3.org/2000/svg" viewBox="0 0 512 512" xmlns:xlink="http://www.w3.org/1999/xlink" enable-background="new 0 0 512 512">
  <g>
    <g>
      <g>
        <path d="m460.2,272.6h-52.3v-15.7c0-11.3-9.1-20.4-20.4-20.4-11.3,0-20.4,9.1-20.4,20.4v15.7h-222.1v-15.7c0-11.3-9.1-20.4-20.4-20.4-11.3,0-20.4,9.1-20.4,20.4v15.7h-52.4v-136.3h408.3v136.3h0.1zm-408.4,187.6v-146.7h52.3v15.7c0,11.3 9.1,20.4 20.4,20.4 11.3,0 20.4-9.1 20.4-20.4v-15.7h222v15.7c0,11.3 9.1,20.4 20.4,20.4 11.3,0 20.4-9.1 20.4-20.4v-15.7h52.3v146.7h-408.2-1.42109e-14zm130.8-408.4h131.8v41.8h-131.8v-41.8zm298,43.6h-125.4v-52.1c0-17.8-14.5-32.3-32.3-32.3h-148.8c-17.8,0-32.3,14.5-32.3,32.3v52.1h-110.4c-11.3,0-20.4,9.1-20.4,20.4v364.7c0,11.3 9.1,20.4 20.4,20.4h449.2c11.3,0 20.4-9.1 20.4-20.4v-364.7c5.68434e-14-11.2-9.1-20.4-20.4-20.4z"/>
      </g>
    </g>
  </g>
</svg>
