<?xml version='1.0' encoding='utf-8'?>
<!DOCTYPE svg PUBLIC '-//W3C//DTD SVG 1.1//EN' 'http://www.w3.org/Graphics/SVG/1.1/DTD/svg11.dtd'>
<svg version="1.1" xmlns="http://www.w3.org/2000/svg" viewBox="0 0 512 512" xmlns:xlink="http://www.w3.org/1999/xlink" enable-background="new 0 0 512 512">
  <g>
    <g>
      <g>
        <path d="m460.2,460.2h-408.4v-108.9h408.3v108.9h0.1zm-343.6-258.6h278.8v108.9h-278.8v-108.9h-2.84217e-14zm57.5-149.8h163.7v108.9h-163.7v-108.9zm306.5,258.6h-44.4v-129.3c0-11.3-9.1-20.4-20.4-20.4h-37.1v-129.3c0-11.3-9.1-20.4-20.4-20.4h-204.6c-11.3,0-20.4,9.1-20.4,20.4v129.3h-37.1c-11.3,0-20.4,9.1-20.4,20.4v129.3h-44.4c-11.3,0-20.4,9.1-20.4,20.4v149.7c0,11.3 9.1,20.4 20.4,20.4h449.2c11.3,0 20.4-9.1 20.4-20.4v-149.6c5.68434e-14-11.3-9.1-20.5-20.4-20.5z"/>
      </g>
    </g>
  </g>
</svg>
