<?xml version='1.0' encoding='utf-8'?>
<!DOCTYPE svg PUBLIC '-//W3C//DTD SVG 1.1//EN' 'http://www.w3.org/Graphics/SVG/1.1/DTD/svg11.dtd'>
<svg version="1.1" xmlns="http://www.w3.org/2000/svg" viewBox="0 0 512 512" xmlns:xlink="http://www.w3.org/1999/xlink" enable-background="new 0 0 512 512">
  <g>
    <g>
      <path d="m97,460.2h318v-408.4h-318v408.4zm338.5,40.8h-359c-11.3,0-20.5-9.1-20.5-20.4v-449.2c0-11.3 9.2-20.4 20.5-20.4h359c11.3,0 20.5,9.1 20.5,20.4v449.2c0,11.3-9.2,20.4-20.5,20.4z"/>
      <path d="m166.7,200.4h178.6v-81.4h-178.6v81.4zm199.1,40.9h-219.6c-11.3,0-20.5-9.1-20.5-20.4v-122.2c0-11.3 9.2-20.4 20.5-20.4h219.6c11.3,0 20.5,9.1 20.5,20.4v122.2c5.68434e-14,11.2-9.2,20.4-20.5,20.4z"/>
      <path d="m213.3,421.6h-50.7c-11.3,0-20.5-9.1-20.5-20.4 0-11.3 9.2-20.4 20.5-20.4h50.7c11.3,0 20.5,9.1 20.5,20.4 0,11.2-9.2,20.4-20.5,20.4z"/>
      <path d="m347.3,421.6h-50.7c-11.3,0-20.5-9.1-20.5-20.4 0-11.3 9.2-20.4 20.5-20.4h50.7c11.3,0 20.5,9.1 20.5,20.4 0.1,11.2-9.1,20.4-20.5,20.4z"/>
      <path d="m213.3,335.8h-50.7c-11.3,0-20.5-9.1-20.5-20.4 0-11.3 9.2-20.4 20.5-20.4h50.7c11.3,0 20.5,9.1 20.5,20.4 0,11.3-9.2,20.4-20.5,20.4z"/>
      <path d="m347.3,335.8h-50.7c-11.3,0-20.5-9.1-20.5-20.4 0-11.3 9.2-20.4 20.5-20.4h50.7c11.3,0 20.5,9.1 20.5,20.4 0.1,11.3-9.1,20.4-20.5,20.4z"/>
    </g>
  </g>
</svg>
