<?xml version='1.0' encoding='utf-8'?>
<!DOCTYPE svg PUBLIC '-//W3C//DTD SVG 1.1//EN' 'http://www.w3.org/Graphics/SVG/1.1/DTD/svg11.dtd'>
<svg version="1.1" xmlns="http://www.w3.org/2000/svg" viewBox="0 0 512 512" xmlns:xlink="http://www.w3.org/1999/xlink" enable-background="new 0 0 512 512">
  <g>
    <g>
      <g>
        <path d="m460.2,361.1h-128.1v-31.1c29.4-22.8 48.3-58.5 48.3-98.6 0-68.8-55.7-124.6-124.3-124.6s-124.3,55.8-124.3,124.6c0,39.3 18.2,74.4 46.6,97.3v32.4h-126.6v-309.2h408.3v309.2h0.1zm-204,69.4l-36.8,16.6v-96.5c11.6,3.6 23.9,5.5 36.7,5.5 12.2,0 23.9-1.8 35-5v95.5l-34.9-16.1zm-.2-114.4c-46.7,0-84.5-37.9-84.5-84.7 0-46.8 37.8-84.7 84.5-84.7s84.5,37.9 84.5,84.7c0,46.8-37.8,84.7-84.5,84.7zm224.6-305.1h-449.2c-11.3,0-20.4,9.2-20.4,20.5v350.1c0,11.3 9.1,20.5 20.4,20.5h146.9v81.3c0,12.8 13.2,21.4 24.9,16.1l52.9-23.8 51.1,23.5c11.7,5.4 25-3.2 25-16.1v-81h148.5c11.3,0 20.4-9.2 20.4-20.5v-350.1c-0.1-11.3-9.2-20.5-20.5-20.5z"/>
      </g>
    </g>
  </g>
</svg>
