<?xml version='1.0' encoding='utf-8'?>
<!DOCTYPE svg PUBLIC '-//W3C//DTD SVG 1.1//EN' 'http://www.w3.org/Graphics/SVG/1.1/DTD/svg11.dtd'>
<svg version="1.1" xmlns="http://www.w3.org/2000/svg" viewBox="0 0 512 512" xmlns:xlink="http://www.w3.org/1999/xlink" enable-background="new 0 0 512 512">
  <g>
    <g>
      <path d="m415.9,339.3c-3.5,3.9-5.4,9.1-5.2,14.4l2.3,63.6-65.8-26.1c-5.9-2.4-11.3-1.2-13.1-0.6-23.4,6.7-47.5,9-70.9,5.6-140.5-20.2-155.8-151.6-152.5-185.6 8.6-87.7 83.9-158.8 174.4-158.8 96.5,0 175,77.5 175,172.8 0.1,42.2-15.7,83-44.2,114.7zm-281.1,88.6c-4.9-1.4-10-0.9-14.6,1.3l-36.5,17.8 2.4-37.9c0.3-5.5-1.5-10.9-5.2-15-18.8-20.9-29.1-47.6-29.1-75.3 0-23 7-45 19.7-63.5 11.3,77.3 64.6,142.2 137.4,169.4-23,8.9-49,10.4-74.1,3.2zm317-67.7c31.8-38.2 49.2-86 49.2-135.5 0-117.8-96.8-213.7-215.8-213.7-108.2,0-200.2,80.9-214.1,185.9-37.8,29.2-60.1,74.2-60.1,121.9 0,34.9 12,68.6 33.9,95.9l-4.1,64.8c-0.5,7.3 3,14.2 9,18.3 3.4,2.3 11.4,5.2 20.3,1.4l61.3-30c48.2,11.3 98.2-1 135.4-31.6 23.7,2 47.9,0.1 71.6-5.9l88.6,35.1c8.5,3.2 15.8,0.2 19.3-2.3 5.6-4 8.9-10.5 8.6-17.4l-3.1-86.9z"/>
      <path d="m359.8,154.7h-141c-11.3,0-20.4,9.1-20.4,20.4 0,11.3 9.1,20.4 20.4,20.4h141c11.3,0 20.4-9.1 20.4-20.4 0-11.2-9.1-20.4-20.4-20.4z"/>
      <path d="m359.8,261.8h-141c-11.3,0-20.4,9.1-20.4,20.4 0,11.3 9.1,20.4 20.4,20.4h141c11.3,0 20.4-9.1 20.4-20.4 0-11.2-9.1-20.4-20.4-20.4z"/>
    </g>
  </g>
</svg>
