<?xml version='1.0' encoding='utf-8'?>
<!DOCTYPE svg PUBLIC '-//W3C//DTD SVG 1.1//EN' 'http://www.w3.org/Graphics/SVG/1.1/DTD/svg11.dtd'>
<svg version="1.1" xmlns="http://www.w3.org/2000/svg" viewBox="0 0 512 512" xmlns:xlink="http://www.w3.org/1999/xlink" enable-background="new 0 0 512 512">
  <g>
    <g>
      <g>
        <path d="m387.5,374.6h-255.7c-44.1,0-80-36.4-80-81.2s35.9-81.2 80-81.2c14.8,0 29.2,4.2 41.8,12 16.2,10 28.3,0.4 30.8-14.3 7.2-42 42.2-72.7 84.4-72.7 42.1,0 77.6,30.5 84.4,72.6 1.5,9.5 9.4,16.7 18.9,17.3 38.3,2.3 68.3,34.7 68.3,73.6-0.2,40.9-32.8,73.9-72.9,73.9zm22.4-186.6c-6.8-23.6-39.7-92-121.2-92-76.4,0-110.2,62.2-117.7,81.6-12.6-4.4-25.8-6.7-39.3-6.7-66.5,0.1-120.7,55-120.7,122.6s54.2,122.5 120.8,122.5h255.8c62.6,0 113.5-51.6 113.5-115.1-0.1-55.4-39-102.3-91.2-112.9z"/>
      </g>
    </g>
  </g>
</svg>
