<?xml version='1.0' encoding='utf-8'?>
<!DOCTYPE svg PUBLIC '-//W3C//DTD SVG 1.1//EN' 'http://www.w3.org/Graphics/SVG/1.1/DTD/svg11.dtd'>
<svg version="1.1" xmlns="http://www.w3.org/2000/svg" viewBox="0 0 512 512" xmlns:xlink="http://www.w3.org/1999/xlink" enable-background="new 0 0 512 512">
  <g>
    <g>
      <g>
        <path d="m428.7,413.9l-111.7-195c6.4-4.7 12.3-10.1 17.3-16.2l114.6,200.1-20.2,11.1zm-227.9-272.1c0-30.2 24.8-54.9 55.2-54.9 30.4,0 55.2,24.6 55.2,54.9 0,30.3-24.8,54.9-55.2,54.9-30.4-0.1-55.2-24.7-55.2-54.9zm-117.5,272.1l-20.3-11.1 114.6-200.1c5.1,6.1 10.9,11.5 17.3,16.2l-111.6,195zm415.1,56.6l-20.8-36.6 9.9-5.5c10.1-5.5 13.6-17.9 8-27.8l-143-249.9c0.3-3 0.4-5.9 0.4-9 0-45.7-32.6-84-76.1-93.4v-16.9c0-11.3-9.3-20.4-20.9-20.4-11.5,0-20.9,9.1-20.9,20.4v16.9c-43.5,9.5-76.1,47.8-76.1,93.4 0,3.1 0.2,6.2 0.5,9.3l-143,249.6c-5.6,9.8-2,22.3 8,27.8l9.9,5.5-20.8,36.6c-5.6,9.9-2,22.4 8.2,27.9 10.1,5.5 22.9,1.9 28.5-8l20.8-36.4 10.1,5.6c12.1,6.1 22.6,2.4 28.4-7.8l124.1-216.8c7.2,1.7 14.6,2.6 22.3,2.6s15.1-0.9 22.3-2.6l124.1,216.8c5.9,10.3 16.4,14 28.4,7.8l10.3-5.6 20.7,36.4c5.6,9.9 18.4,13.5 28.5,8 10.1-5.5 13.8-18 8.2-27.9z"/>
      </g>
    </g>
  </g>
</svg>
