<?xml version='1.0' encoding='utf-8'?>
<!DOCTYPE svg PUBLIC '-//W3C//DTD SVG 1.1//EN' 'http://www.w3.org/Graphics/SVG/1.1/DTD/svg11.dtd'>
<svg version="1.1" xmlns="http://www.w3.org/2000/svg" viewBox="0 0 512 512" xmlns:xlink="http://www.w3.org/1999/xlink" enable-background="new 0 0 512 512">
  <g>
    <g>
      <g>
        <path d="m232.5,68.9c0.1,3.3-0.1,6.7-0.5,10-0.2,1.5-0.4,3.1-0.7,4.8-1.5,9.9-3.3,22.1 2.3,34.9 3,6.8 7.4,11.9 10.9,16.1 0.9,1.1 2.2,2.6 3.1,3.7-1.4,1.4-4.5,3.9-10.7,7-13.9,7.1-31.2,15.9-42.2,32.7-0.9,1.4-1.8,2.8-2.5,4.1-0.1,0.2-0.2,0.4-0.4,0.6-1.6-0.7-3.7-1.9-6-3.8l-1.2-1c-5.9-4.7-13.6-10.8-22.9-14.2 7.4-42 34.4-77 70.8-94.9zm182,101.5c-9.1-1.2-19.4-0.7-30.9,1.7-1.4,0.3-2.8,0.6-4.1,0.9-9.6,2.1-19.6,4.2-25.3,1.8-1.3-0.6-3.1-1.7-4.9-2.8-2.8-1.7-6.4-3.9-10.5-5.7-14.2-6-29.5-3.8-39.2,5.7-5.1,5-7.5,10.8-9,15.3-3.2,9.8-4.4,19.2-5.6,28.3-1,7.9-2,15.3-4.1,21.5-3,8.7-9.2,16.7-17,21.8-1.3,0.9-2.8,1.8-4.4,2.7-6.5,3.9-14.6,8.7-20.7,17.4-4.5,6.5-6.6,13.4-8.2,19-0.5,1.8-1.3,4.4-1.9,5.9-34-18.2-59.1-51.6-66.6-91.3 10.8,8.1 22,12.2 32.3,12.2 7.7,0 15-2.3 21.3-6.9 6.4-4.7 9.9-10.6 12.4-14.9 0.5-0.9 1.1-1.8 1.5-2.5 4.9-7.6 15.8-13.1 26.3-18.4 9.1-4.6 16.1-9.5 21.5-14.9 12.1-12.2 13.4-24.7 12.3-33-1.5-12-8.4-20.1-13.5-26-1.7-2-3.9-4.5-4.4-5.7-0.9-2.1 0-8.2 0.7-12.7 0.3-1.9 0.6-3.8 0.8-5.8 1.1-8.9 1.1-18 0-26.9 4.7-0.5 9.5-0.8 14.4-0.8 64.8-0.2 118.7,49.7 126.8,114.1zm-126.9,148.2c-6.7,0-13.4-0.5-19.8-1.6 1-2.7 1.8-5.2 2.4-7.4 0.8-2.6 1.9-6.2 2.7-7.4 0.9-1.3 4.9-3.7 7.8-5.4 1.9-1.2 3.9-2.3 6-3.7 15.4-10.1 27.2-25.2 33.3-42.6 3.6-10.3 4.9-20.6 6.1-29.7 0.6-4.7 1.2-9.3 2-13.6 2.7,1.7 5.8,3.5 9.6,5.2 17.9,7.8 36,3.9 50.6,0.7 1.3-0.3 2.6-0.6 3.9-0.8 11.9-2.5 18.6-1.6 21.1,0.2-11.5,60.4-63.5,106.1-125.7,106.1zm-58.8-14.6c0.2-0.2 0.4-0.3 0.6-0.5l.8,1.2c-0.4-0.2-0.9-0.5-1.4-0.7zm58.8,55.5c93.3,0 169.2-77.2 169.2-172.1 0-94.9-75.9-172.1-169.2-172.1-93.3,0-169.2,77.2-169.2,172.1-0.1,94.9 75.9,172.1 169.2,172.1z"/>
        <path d="m454.8,328.7c-8.2-7.8-21.2-7.7-29.1,0.4-36.9,37.7-85.9,58.4-138.1,58.4-52.1,0-101.1-20.7-138.1-58.4-76.6-78.2-76.6-205.3 0-283.5 7.9-8.1 7.7-21-0.4-28.9-8.2-7.8-21.2-7.7-29.1,0.4-92,93.8-92,246.5 0,340.4 39.8,40.7 91.4,65.1 147,69.9v32.7h-32c-11.4,0-20.6,9.1-20.6,20.4 0,11.3 9.2,20.4 20.6,20.4h105.2c11.4,0 20.6-9.1 20.6-20.4 0-11.3-9.2-20.4-20.6-20.4h-32v-32.7c55.6-4.8 107.2-29.2 147-69.9 7.9-8 7.7-21-0.4-28.8z"/>
      </g>
    </g>
  </g>
</svg>
