<?xml version='1.0' encoding='utf-8'?>
<!DOCTYPE svg PUBLIC '-//W3C//DTD SVG 1.1//EN' 'http://www.w3.org/Graphics/SVG/1.1/DTD/svg11.dtd'>
<svg version="1.1" xmlns="http://www.w3.org/2000/svg" viewBox="0 0 512 512" xmlns:xlink="http://www.w3.org/1999/xlink" enable-background="new 0 0 512 512">
  <g>
    <g>
      <g>
        <path d="m235.7,51.8v140.1c0,9.2-6.1,17.2-15,19.7-55.1,15.3-93.7,65.4-93.7,121.8 0,69.9 57.9,126.8 129,126.8 71.1,0 129-56.9 129-126.8 0-56.4-38.6-106.5-93.7-121.8-8.9-2.5-15-10.5-15-19.7v-140.1h-40.6v-1.42109e-14zm20.3,449.2c-93.7,0-170-75.2-170-167.6 0-69.4 44-131.5 108.7-156.2v-145.8c0-11.3 9.2-20.4 20.5-20.4h81.5c11.3,0 20.5,9.1 20.5,20.4v145.7c64.8,24.8 108.8,86.9 108.8,156.3 0,92.4-76.3,167.6-170,167.6z"/>
      </g>
    </g>
  </g>
</svg>
