<?xml version='1.0' encoding='utf-8'?>
<!DOCTYPE svg PUBLIC '-//W3C//DTD SVG 1.1//EN' 'http://www.w3.org/Graphics/SVG/1.1/DTD/svg11.dtd'>
<svg version="1.1" xmlns="http://www.w3.org/2000/svg" viewBox="0 0 512 512" xmlns:xlink="http://www.w3.org/1999/xlink" enable-background="new 0 0 512 512">
  <g>
    <g>
      <g>
        <path d="m410.3,460.2h-308.6c-0.5,0-0.9,0-1.3,0l113.7-184.5c2-3.2 3-6.9 3-10.7v-213.2h77.6v213.2c0,3.8 1,7.5 3,10.7l113.7,184.5c-0.3,0-0.7,0-1.1,0zm40.7-14.2l-115.2-186.8v-186.6c10.3-6.1 16.9-16.2 16.9-27.7 0-19-17.7-33.9-40.2-33.9h-113c-22.5,0-40.2,14.9-40.2,33.9 0,11.5 6.5,21.6 16.9,27.7v186.7l-115.2,186.7c-6.4,10.4-6.7,22.9-0.8,33.5 7.5,13.3 23.4,21.5 41.5,21.5h308.5c18.1,0 34-8.2 41.5-21.5 6-10.6 5.7-23.1-0.7-33.5z"/>
      </g>
    </g>
  </g>
</svg>
