<?xml version='1.0' encoding='utf-8'?>
<!DOCTYPE svg PUBLIC '-//W3C//DTD SVG 1.1//EN' 'http://www.w3.org/Graphics/SVG/1.1/DTD/svg11.dtd'>
<svg version="1.1" xmlns="http://www.w3.org/2000/svg" viewBox="0 0 512 512" xmlns:xlink="http://www.w3.org/1999/xlink" enable-background="new 0 0 512 512">
  <g>
    <g>
      <path d="m460.2,316.2h-132.2c-0.1,0-0.1,0-0.2,0-0.1,0-0.1,0-0.2,0h-143.4c0,0 0,0 0,0h-132.4v-264.4h408.3v264.4h0.1zm20.4-305.2h-449.2c-11.3,0-20.4,9.1-20.4,20.4v305.2c0,11.3 9.1,20.4 20.4,20.4h117.4l-65.2,113.4c-5.6,9.8-2.3,22.3 7.5,27.9 9.7,5.6 22.2,2.2 27.9-7.5l77-133.7h120l77,133.7c5.6,9.8 18.1,13.1 27.9,7.5 9.8-5.6 13.1-18.1 7.5-27.9l-65.2-113.3h117.5c11.3,0 20.4-9.1 20.4-20.4v-305.3c-0.1-11.3-9.2-20.4-20.5-20.4z"/>
      <path d="m92.8,279c7.8,6.6 23.7,3.2 28.7-3.5l65.8-84.3 100.1,68.7c8.9,6.1 21,4.2 27.6-4.2l107.9-137.7c7-8.9 5.4-21.7-3.5-28.7-8.9-6.9-21.7-5.4-28.7,3.5l-96.1,122.6-100.1-68.7c-8.9-6.1-21-4.2-27.7,4.3l-77.6,99.5c-6.9,8.7-5,21.2 3.6,28.5z"/>
    </g>
  </g>
</svg>
