<?xml version='1.0' encoding='utf-8'?>
<!DOCTYPE svg PUBLIC '-//W3C//DTD SVG 1.1//EN' 'http://www.w3.org/Graphics/SVG/1.1/DTD/svg11.dtd'>
<svg version="1.1" xmlns="http://www.w3.org/2000/svg" viewBox="0 0 512 512" xmlns:xlink="http://www.w3.org/1999/xlink" enable-background="new 0 0 512 512">
  <g>
    <g>
      <g>
        <path d="m431.5,218.6c-38.2,38.2-100.1,38.2-138.3,0-38.2-38.2-38.2-100 0-138.2 38.2-38.2 100.1-38.2 138.3,0 38.2,38.2 38.2,100.1 0,138.2zm28.9-167c-54.2-54.1-141.9-54.1-196.1,7.10543e-15-47.6,47.5-53.3,120.9-17.4,174.8l-229.1,206.4c-8.4,7.6-9.3,20.7-1.5,28.8 7,7.3 20,8.7 28.9,1.5l23.1-20.8 47.5,52c7.6,8.3 20.5,8.9 28.9,1.3 8.3-7.6 8.9-20.5 1.3-28.8l-47.3-51.8 11.7-10.6 31.6,34.5c7.6,8.3 20.5,8.9 28.9,1.3 8.3-7.6 8.9-20.5 1.3-28.8l-31.4-34.4 11.7-10.6 47.5,52c7.6,8.3 20.5,8.9 28.9,1.3 8.3-7.6 8.9-20.5 1.3-28.8l-47.4-51.9 91.5-82.5c54.5,44.8 135.1,41.8 186-9.1 54.2-54 54.2-141.7 0.1-195.8v7.10543e-15z"/>
      </g>
    </g>
  </g>
</svg>
