<?xml version='1.0' encoding='utf-8'?>
<!DOCTYPE svg PUBLIC '-//W3C//DTD SVG 1.1//EN' 'http://www.w3.org/Graphics/SVG/1.1/DTD/svg11.dtd'>
<svg version="1.1" xmlns="http://www.w3.org/2000/svg" viewBox="0 0 512 512" xmlns:xlink="http://www.w3.org/1999/xlink" enable-background="new 0 0 512 512">
  <g>
    <g>
      <path d="m190.3,320.1h-35.5c-11.3,0-20.4,9.1-20.4,20.4 0,11.3 9.1,20.4 20.4,20.4h35.5c11.3,0 20.4-9.1 20.4-20.4-2.84217e-14-11.2-9.1-20.4-20.4-20.4z"/>
      <path d="m357.5,320.1h-35.5c-11.3,0-20.4,9.1-20.4,20.4 0,11.3 9.1,20.4 20.4,20.4h35.5c11.3,0 20.4-9.1 20.4-20.4 0-11.2-9.2-20.4-20.4-20.4z"/>
      <path d="m190.3,400.6h-35.5c-11.3,0-20.4,9.1-20.4,20.4 0,11.3 9.1,20.4 20.4,20.4h35.5c11.3,0 20.4-9.1 20.4-20.4-2.84217e-14-11.3-9.1-20.4-20.4-20.4z"/>
      <g>
        <path d="m357.5,400.6h-35.5c-11.3,0-20.4,9.1-20.4,20.4 0,11.3 9.1,20.4 20.4,20.4h35.5c11.3,0 20.4-9.1 20.4-20.4 0-11.3-9.2-20.4-20.4-20.4z"/>
        <path d="m58,460.2l39.9-158.8h316.5l39.9,158.8h-396.3zm44.4-408.4h307.6v208.7h-307.6v-208.7l0-0zm397.8,423.8l-49.5-197.2v-247c0-11.3-9.1-20.4-20.4-20.4h-348.3c-11.3,0-20.4,9.1-20.4,20.4v247l-49.5,197.2c-4.8,16.4 6.7,25.4 19.8,25.4h448.6c15.8,0 23-11.2 19.7-25.4z"/>
      </g>
    </g>
  </g>
</svg>
