<?xml version='1.0' encoding='utf-8'?>
<!DOCTYPE svg PUBLIC '-//W3C//DTD SVG 1.1//EN' 'http://www.w3.org/Graphics/SVG/1.1/DTD/svg11.dtd'>
<svg version="1.1" xmlns="http://www.w3.org/2000/svg" viewBox="0 0 512 512" xmlns:xlink="http://www.w3.org/1999/xlink" enable-background="new 0 0 512 512">
  <g>
    <g>
      <g>
        <path d="m257,224.3c-25.6,0-46.5-20.8-46.5-46.4 0-25.6 20.9-46.4 46.5-46.4 25.6,0 46.5,20.8 46.5,46.4 0,25.6-20.9,46.4-46.5,46.4zm0-133.6c-48.2,1.42109e-14-87.3,39.1-87.3,87.2 0,48.1 39.2,87.2 87.3,87.2 48.2,0 87.3-39.1 87.3-87.2 0-48-39.1-87.2-87.3-87.2z"/>
        <path d="m423.2,408.9c-8.5-0.7-16.3,4-19.9,11.7l-7.9,16.7-65.3-109.1c15.6-7.6 29.9-17.6 42.4-29.5l69.5,111.5-18.8-1.3zm-292.6-231c2.84217e-14-69.5 56.7-126.1 126.4-126.1 69.7,0 126.4,56.6 126.4,126.1 0,69.5-56.7,126.1-126.4,126.1-69.7,0.1-126.4-56.5-126.4-126.1zm-14,259.3l-7.9-16.7c-3.6-7.6-11.5-12.4-19.9-11.7l-18.8,1.4 70.4-112.8c12.3,12 26.5,22.1 42.1,29.9l-65.9,109.9zm381.3-14.5l-98.3-157.7c15.6-25.4 24.6-55.2 24.6-87.1-5.68434e-14-92-75-166.9-167.2-166.9-92.2,0-167.2,74.9-167.2,166.9-1.42109e-14,31.2 8.6,60.4 23.6,85.4l-99.3,159.4c-4.1,6.5-4.1,14.8-0.2,21.3 4,6.6 11.3,10.4 19,9.8l44.9-3.2 18.2,38.7c3.2,6.8 9.9,11.3 17.5,11.7 0.3,0 0.7,0 1,0 7.2,0 13.8-3.8 17.5-9.9l89.7-149.9c11.4,2.5 23.2,3.8 35.3,3.8 11.5,0 22.7-1.2 33.5-3.4l89.5,149.5c3.7,6.2 10.4,9.9 17.5,9.9 0.3,0 0.7,0 1,0 7.5-0.4 14.2-4.9 17.5-11.7l18.2-38.7 44.9,3.2c7.7,0.6 15-3.2 19-9.8 3.9-6.6 3.9-14.8-0.2-21.3z"/>
      </g>
    </g>
  </g>
</svg>
