<?xml version='1.0' encoding='utf-8'?>
<!DOCTYPE svg PUBLIC '-//W3C//DTD SVG 1.1//EN' 'http://www.w3.org/Graphics/SVG/1.1/DTD/svg11.dtd'>
<svg version="1.1" xmlns="http://www.w3.org/2000/svg" viewBox="0 0 512 512" xmlns:xlink="http://www.w3.org/1999/xlink" enable-background="new 0 0 512 512">
  <g>
    <g>
      <g>
        <path d="m320.6,212.6c41.6,115.8 36.5,208.6 32.1,244.7h-79.3c44-77.2 35.6-161.5 18.3-223l28.9-21.7zm-217.1,96.4l-13.2-18.8 34.1-25.6 13.2,18.8-34.1,25.6zm269.6-247.4l27.3,38.8-223.1,167.6-27.3-38.8 223.1-167.6v7.10543e-15zm107.5,397.2h-86.9c5.2-44.6 8.9-146-38.9-271.9l86.1-64.7c9-6.3 14.3-15.7 4.5-29.5l-51.3-73c-6.6-9.4-19.4-11.5-28.5-4.7l-256.1,192.4c-11.4,8.9-8.5,19.4-7.8,22.1l-51.9,39c-9.1,6.9-11.2,20.1-4.5,29.5l37.2,53c7.9,11 20,9.6 28.5,4.7l52.4-39.4c2.9,1.6 11.2,5.2 21.4-1.7l71.5-53.7c13.6,57.7 15.9,133.3-33.3,197.9h-191.6c-11.3,0-20.4,9.5-20.4,21.1 0,11.7 9.1,21.1 20.4,21.1h449.2c11.3,0 20.4-9.5 20.4-21.1 5.68434e-14-11.7-9.1-21.1-20.4-21.1z"/>
      </g>
    </g>
  </g>
</svg>
