<?xml version='1.0' encoding='utf-8'?>
<!DOCTYPE svg PUBLIC '-//W3C//DTD SVG 1.1//EN' 'http://www.w3.org/Graphics/SVG/1.1/DTD/svg11.dtd'>
<svg version="1.1" xmlns="http://www.w3.org/2000/svg" viewBox="0 0 512 512" xmlns:xlink="http://www.w3.org/1999/xlink" enable-background="new 0 0 512 512">
  <g>
    <g>
      <g>
        <path d="m256,250.1l-125-54 127-12.8c11.2-1.1 19.4-11.1 18.3-22.3-1.1-11.2-11.2-19.4-22.4-18.3l-126.8,12.7 128.9-56.7 173.5,76.4-173.5,75zm114.3,145.1c-33.5,11.4-130.6,37.8-228.5,0.4v-150.4l106.1,45.8c6.9,2.6 10.7,2.5 16.2,0l106.2-45.8v150zm118.5-238.5l-224.6-99c-5.2-2.3-11.2-2.3-16.5,0l-224.5,99c-7.4,3.3-12.2,10.6-12.2,18.7 0,8.1 4.9,15.4 12.3,18.7l10.8,4.6v193.5c0,11.3 9.1,20.4 20.4,20.4 11.3,0 20.4-9.1 20.4-20.4v-175.9l26,11.2v181.8c0,8.1 4.8,15.4 12.2,18.7 48.1,21 95.8,28 138.2,28 82.1,0 143.7-26.3 147.6-28 7.4-3.2 12.2-10.6 12.2-18.7v-181.7l77.6-33.5c7.5-3.2 12.3-10.5 12.3-18.7 5.68434e-14-8.1-4.8-15.5-12.2-18.7z"/>
      </g>
    </g>
  </g>
</svg>
