<?xml version='1.0' encoding='utf-8'?>
<!DOCTYPE svg PUBLIC '-//W3C//DTD SVG 1.1//EN' 'http://www.w3.org/Graphics/SVG/1.1/DTD/svg11.dtd'>
<svg version="1.1" xmlns="http://www.w3.org/2000/svg" viewBox="0 0 512 512" xmlns:xlink="http://www.w3.org/1999/xlink" enable-background="new 0 0 512 512">
  <g>
    <g>
      <g>
        <path d="m88.9,460.2c-20.4,0-37-16.4-37-36.7 0-20.2 16.6-36.7 37-36.7 20.4,0 37,16.4 37,36.7 0,20.2-16.6,36.7-37,36.7zm130.4-369.8l-83.3,48.5c-6.3,3.7-10.1,10.4-10.1,17.6v198.8c-11-6-23.6-9.3-37-9.3-43,0-77.9,34.8-77.9,77.5 0,42.7 34.9,77.5 77.9,77.5 42.9,0 77.9-34.8 77.9-77.5v-255.2l73.1-42.6c9.7-5.7 13-18.2 7.3-27.9-5.7-9.8-18.2-13.1-27.9-7.4z"/>
        <path d="m339.9,383.6c-20.4,0-37-16.4-37-36.7 0-20.2 16.6-36.7 37-36.7 20.4,0 37,16.4 37,36.7 0,20.2-16.6,36.7-37,36.7zm158.3-362.5c-5.7-9.7-18.2-13-27.9-7.4l-83.2,48.5c-6.3,3.7-10.1,10.4-10.1,17.6v198.8c-11-6-23.6-9.3-37-9.3-42.9,0-77.9,34.8-77.9,77.5 0,42.7 34.9,77.5 77.9,77.5 42.9,0 77.9-34.8 77.9-77.5v-255.1l73.1-42.6c9.6-5.7 12.9-18.2 7.2-28z"/>
      </g>
    </g>
  </g>
</svg>
