<?xml version='1.0' encoding='utf-8'?>
<!DOCTYPE svg PUBLIC '-//W3C//DTD SVG 1.1//EN' 'http://www.w3.org/Graphics/SVG/1.1/DTD/svg11.dtd'>
<svg version="1.1" xmlns="http://www.w3.org/2000/svg" viewBox="0 0 512 512" xmlns:xlink="http://www.w3.org/1999/xlink" enable-background="new 0 0 512 512">
  <g>
    <g>
      <g>
        <path d="m374.4,195.8h-236.7l-31-141.7h298.6l-30.9,141.7zm-49.4,180.6l-48.5,50.9v-80.1c0-11.3-9.1-20.4-20.4-20.4-11.3,0-20.4,9.1-20.4,20.4v80.1l-48.5-50.9v-139.9h137.8v139.9zm105.7-363.1h-349.3c-18.3-1.06581e-14-21.9,15.3-19.9,24.8l39.9,182.6c2.1,9.4 10.3,16.1 19.9,16.1h25v147.9c0,5.2 2,10.3 5.6,14.1l89.4,93.7c3.8,4 9.2,6.3 14.8,6.3 5.6,0 10.9-2.3 14.8-6.3l89.4-93.7c3.6-3.8 5.6-8.8 5.6-14.1v-148h25c9.6,0 17.9-6.7 19.9-16.1l39.9-182.6c1.3-6 0.1-24.7-20-24.7z"/>
      </g>
    </g>
  </g>
</svg>
