<?xml version='1.0' encoding='utf-8'?>
<!DOCTYPE svg PUBLIC '-//W3C//DTD SVG 1.1//EN' 'http://www.w3.org/Graphics/SVG/1.1/DTD/svg11.dtd'>
<svg version="1.1" xmlns="http://www.w3.org/2000/svg" viewBox="0 0 512 512" xmlns:xlink="http://www.w3.org/1999/xlink" enable-background="new 0 0 512 512">
  <g>
    <g>
      <g>
        <path d="m457.7,457.7c-2.7,2.7-7.1,2.7-9.8,0l-84.6-84.6c1.7-1.6 8.2-8.1 9.8-9.8l84.6,84.6c2.7,2.8 2.7,7.1 5.68434e-14,9.8zm-261.2-70.6l190.7-190.6c7.2,50.7-8.7,104-47.7,143-39,38.9-92.3,54.8-143,47.6zm-95.3-47.7c-65.8-65.8-65.8-172.4 0-238.2 65.8-65.8 172.5-65.8 238.3,0 15,15 26.6,32.1 34.7,50.4l-222.6,222.5c-18.3-8.1-35.4-19.7-50.4-34.7zm385.8,80.1l-88.8-88.7c50.3-80.8 40.3-188.3-29.8-258.4-81.8-81.7-214.3-81.7-296.1,0-81.8,81.7-81.8,214.2 0,296 70.1,70.1 177.6,80.1 258.3,30l88.8,88.8c18.7,18.6 48.9,18.6 67.6,0 18.7-18.8 18.7-49.1 0-67.7z"/>
      </g>
    </g>
  </g>
</svg>
