<?xml version='1.0' encoding='utf-8'?>
<!DOCTYPE svg PUBLIC '-//W3C//DTD SVG 1.1//EN' 'http://www.w3.org/Graphics/SVG/1.1/DTD/svg11.dtd'>
<svg version="1.1" xmlns="http://www.w3.org/2000/svg" viewBox="0 0 512 512" xmlns:xlink="http://www.w3.org/1999/xlink" enable-background="new 0 0 512 512">
  <g>
    <g>
      <path d="m51.8,460.2v-379.5l379.3,379.5h-379.3-1.42109e-14zm441.4,4.3l-447.4-447.5c-5.8-5.8-14.6-7.6-22.2-4.4-7.6,3.1-12.6,10.6-12.6,18.8v449.2c0,11.3 9.1,20.4 20.4,20.4h449c0.1,0 0.1,0 0.2,0 11.3,0 20.4-9.1 20.4-20.4 5.68434e-14-6.5-3-12.3-7.8-16.1z"/>
      <path d="m129.8,283.3l98.8,98.8h-98.8v-98.8zm-20.4,139.7h168.5c0.1,0 0.1,0 0.2,0 11.3,0 20.4-9.1 20.4-20.4 0-6.5-3-12.3-7.8-16.1l-166.9-166.9c-5.8-5.8-14.6-7.6-22.2-4.4-7.7,3.1-12.6,10.6-12.6,18.8v168.6c0,11.3 9.1,20.4 20.4,20.4z"/>
    </g>
  </g>
</svg>
