<?xml version='1.0' encoding='utf-8'?>
<!DOCTYPE svg PUBLIC '-//W3C//DTD SVG 1.1//EN' 'http://www.w3.org/Graphics/SVG/1.1/DTD/svg11.dtd'>
<svg version="1.1" xmlns="http://www.w3.org/2000/svg" viewBox="0 0 512 512" xmlns:xlink="http://www.w3.org/1999/xlink" enable-background="new 0 0 512 512">
  <g>
    <g>
      <g>
        <path d="m251.5,315.2l-49.2-48.9 199.8-198.4 49.2,48.9-199.8,198.4zm-90.3,40.7l20-52.8 33.2,32.9-53.2,19.9zm30.2,104.3h-139.3v-68.4h29.3c11.4,0 20.6-9.1 20.6-20.4 0-11.3-9.2-20.4-20.6-20.4h-29.3v-74.5h29.3c11.4,0 20.6-9.1 20.6-20.4 0-11.3-9.2-20.4-20.6-20.4h-29.3v-74.7h29.3c11.4,0 20.6-9.1 20.6-20.4 0-11.3-9.2-20.4-20.6-20.4h-29.3v-68.4h139.3v167.4l-32.7,32.4c0,0 0,0-0.1,0.1l-.1,.1c-2,2-3.6,4.5-4.7,7.2l-47.2,124.6c-2.8,7.5-1,16 4.7,21.6 3.9,3.9 14.1,7.6 21.8,4.7l58.3-21.7v72h-2.84217e-14zm303.6-357.8l-78.3-77.7c-7.7-7.7-21.4-7.7-29.1,0l-155,153.8v-147c0-11.3-9.2-20.4-20.6-20.4h-180.4c-11.4-0.1-20.6,9-20.6,20.3v449.2c0,11.3 9.2,20.4 20.6,20.4h180.4c11.4,0 20.6-9.1 20.6-20.4v-107.7l26.1-9.7c2.7-1 5.2-2.6 7.2-4.6 0,0 0.1,0 0.1-0.1l.1-.1 228.9-227.2c8-7.9 8-20.9 0-28.8z"/>
      </g>
    </g>
  </g>
</svg>
