<?xml version='1.0' encoding='utf-8'?>
<!DOCTYPE svg PUBLIC '-//W3C//DTD SVG 1.1//EN' 'http://www.w3.org/Graphics/SVG/1.1/DTD/svg11.dtd'>
<svg version="1.1" xmlns="http://www.w3.org/2000/svg" viewBox="0 0 512 512" xmlns:xlink="http://www.w3.org/1999/xlink" enable-background="new 0 0 512 512">
  <g>
    <g>
      <path d="m159.7,352.1c-8.8,0-15.9-6.2-15.9-13.9 0-7.7 7.1-13.9 15.9-13.9 8.8,0 15.9,6.2 15.9,13.9 0,7.7-7.1,13.9-15.9,13.9zm0-68.7c-31.3,0-56.7,24.6-56.7,54.8 0,30.2 25.4,54.8 56.7,54.8 31.3,0 56.7-24.6 56.7-54.8 2.84217e-14-30.2-25.4-54.8-56.7-54.8z"/>
      <g>
        <path d="m352.3,352.1c-8.8,0-15.9-6.2-15.9-13.9 0-7.7 7.1-13.9 15.9-13.9 8.8,0 15.9,6.2 15.9,13.9 0,7.7-7.2,13.9-15.9,13.9zm0-68.7c-31.3,0-56.7,24.6-56.7,54.8 0,30.2 25.4,54.8 56.7,54.8s56.7-24.6 56.7-54.8c0-30.2-25.4-54.8-56.7-54.8z"/>
        <path d="m51.8,414.6v-161h408.3v161h-408.3-1.42109e-14zm183.8-362v160.2h-183.8v-120.9c26.7-10.5 96.2-34.7 183.8-39.3zm224.6,160.2h-183.8v-160.8c65.2,1.5 126.9,14.7 183.8,39.6v121.2zm29.1-152.9c-69-32.4-144.7-48.9-225-48.9-136.1,0-237.3,46.9-241.6,48.9-7.1,3.4-11.7,10.6-11.7,18.5v356.6c0,11.3 9.1,20.4 20.4,20.4h40.5v25.2c0,11.3 9.1,20.4 20.4,20.4 11.3,0 20.4-9.1 20.4-20.4v-25.2h286.6v25.2c0,11.3 9.1,20.4 20.4,20.4 11.3,0 20.4-9.1 20.4-20.4v-25.2h40.5c11.3,0 20.4-9.1 20.4-20.4v-356.6c0-7.9-4.6-15.1-11.7-18.5z"/>
      </g>
    </g>
  </g>
</svg>
