<?xml version='1.0' encoding='utf-8'?>
<!DOCTYPE svg PUBLIC '-//W3C//DTD SVG 1.1//EN' 'http://www.w3.org/Graphics/SVG/1.1/DTD/svg11.dtd'>
<svg version="1.1" xmlns="http://www.w3.org/2000/svg" viewBox="0 0 512 512" xmlns:xlink="http://www.w3.org/1999/xlink" enable-background="new 0 0 512 512">
  <g>
    <g>
      <g>
        <path d="m443.6,255.2l-318.2-117.2 17.7-43.6 311.1,134.4-10.6,26.4zm-358.1-196.8l24,10.5-26.1,64.3-24.6-8.9 26.7-65.9v-7.10543e-15zm403.2,141.2l-332.7-143.8c-0.9-6.8-5.2-13-12-16l-61.2-26.8c-10.6-4.2-21.9-2.2-27.2,10.9l-42.5,104.7c-5.5,11.1 0.3,22.3 11.9,26.6l63,22.8c9.4,3.1 16.2-0.4 19.8-3.3l139.9,51.5v135.6l-86.2,106.3c-7.1,8.7-5.7,21.4 3.1,28.5 8.8,7 21.6,5.6 28.7-3.1l54.5-67.1v54.4c0,11.2 9.1,20.2 20.4,20.2 11.3,0 20.4-9.1 20.4-20.2v-54.4l54.5,67.1c7.1,8.7 19.9,10.1 28.7,3.1 8.8-7 10.2-19.7 3.1-28.5l-86.2-106.3v-120.6l159.3,58.8c12.4,4.7 21.9,0.1 26-11.4l25.5-62.9c4.1-10.1-0.6-21.7-10.8-26.1z"/>
      </g>
    </g>
  </g>
</svg>
