<?xml version='1.0' encoding='utf-8'?>
<!DOCTYPE svg PUBLIC '-//W3C//DTD SVG 1.1//EN' 'http://www.w3.org/Graphics/SVG/1.1/DTD/svg11.dtd'>
<svg version="1.1" xmlns="http://www.w3.org/2000/svg" viewBox="0 0 512 512" xmlns:xlink="http://www.w3.org/1999/xlink" enable-background="new 0 0 512 512">
  <g>
    <g>
      <g>
        <path d="m172.1,89.3c26.6,0 48.3,20.4 48.3,45.6s-21.7,45.6-48.3,45.6c-26.6,0-48.3-20.4-48.3-45.6s21.7-45.6 48.3-45.6zm0,132c49.1,0 89.1-38.8 89.1-86.4s-40-86.4-89.1-86.4c-49.1,0-89.1,38.7-89.1,86.4s40,86.4 89.1,86.4z"/>
        <path d="M460.2,341H347.8c-2-36.6-22.1-68.4-51.4-86.8c8.1-27.7,26.8-43.3,52.6-43.3h49.7c33.9,0,61.5,34,61.5,75.7V341     L460.2,341z M307.1,460.2H51.8V347c0-37.8,30.8-68.6,68.6-68.6h118c37.8,0,68.6,30.8,68.6,68.6V460.2L307.1,460.2z M398.7,170     H349c-43.4,0-76.9,26.1-90.8,69.3c-6.4-1.2-13-1.8-19.7-1.8h-118C60.1,237.6,11,286.7,11,347v133.5c0,11.3,9.1,20.4,20.4,20.4     h296.1c11.3,0,20.4-9.1,20.4-20.4v-98.8h132.7c11.3,0,20.4-9.1,20.4-20.4v-74.8C501,222.3,455.1,170,398.7,170L398.7,170z"/>
        <path d="m354,90c0.7-26.9 11.1-37.3 19.8-38.1 8.9,0.7 19.1,11.1 19.8,38.1 0.2,8.6 2.1,16 4.6,22.2-1.5,0.1-46.6,0.1-48.9,0 2.6-6.2 4.5-13.6 4.7-22.2zm94.2,46.1c6.8-12.7-2-24-6-29.3-3.9-5.3-7.6-10.2-7.8-17.9-1.3-52.5-31-76.9-59.9-77.9-0.2,0-3.2,0.1-3.6,0.1-25.8,1.9-56.3,23.4-57.8,77.8-0.2,7.7-3.9,12.6-7.8,17.9-3.9,5.3-13.5,17-6,29.3 14.7,23.7 137.7,21.1 148.9,0z"/>
      </g>
    </g>
  </g>
</svg>
